#!OML:ASF F:\VICON\USERDATA\INSTALL\rory3\rory3.ASF
:FULLY-SPECIFIED
:DEGREES
37
root -0.31709492812444096 19.006171519419148 6.271437051800776 4.658979093243681 5.861096530029011 -2.9954143881135344
lfemur -14.874749233991428 0.9656358307672137 -17.680825933321785
ltibia 79.83580755740466
lfoot 2.4141902107001174 -8.482080836130308
ltoes -20.724351546956512
rfemur -16.218435458792403 3.187270383613792 30.739327634851673
rtibia 57.16957819371326
rfoot 17.603821400073898 -2.3650629354449664
rtoes -4.132977291546075
lowerback 16.942272189806747 0.3807282312039528 2.5404778780273074
upperback -0.9658545006688403 2.132944852970663 3.2170715611182223
thorax -9.664913051729485 0.1640034083212134 1.8863531129538957
lowerneck -21.556519188856168 -2.9719167867150906 -1.9052862161744533
upperneck 14.484606388623668 -2.421387330390779 2.428193678648524
head 7.9099660247442545 -1.5787125082756144 0.5245214328694482
lclavicle -1.7357712508500226e-15 1.7646733888527195e-15
lhumerus -46.14882375151087 -11.687516323476615 97.82523318409815
lradius 109.65493891872605
lwrist 35.6221471498714
lhand -24.766610598678902 3.8848852737998207
lfingers 7.12502
lthumb 1.5862058416710016 33.61925869026019
rclavicle -1.7257141343587569e-15 1.7858996196901644e-15
rhumerus -51.21510925654877 13.705727924224085 -98.59986471330782
rradius 114.07465609177915
rwrist -10.788669331657674
rhand -15.980736208037815 39.834200590958815
rfingers 7.12502
rthumb 10.161560886157739 10.108155023297465
38
root -0.3091866310159151 19.08300102680951 7.1401921112378375 4.294382536417279 5.603152867881083 -3.718317605103517
lfemur -21.14550900852884 2.185752110806182 -16.95150545766097
ltibia 86.04076110386316
lfoot 2.1994837014941 -7.673410410449159
ltoes -19.211443215368625
rfemur -13.498579347898659 3.383488143464685 31.40890154081774
rtibia 58.20154221731981
rfoot 18.57900207738168 -2.4160352990973415
rtoes -6.718282790813438
lowerback 16.94852148569674 0.5817731308869387 2.8330566580654963
upperback -1.0990173683846878 2.6488046000543664 3.127119015722778
thorax -9.73383083752521 0.3309814670169629 1.3507796220340647
lowerneck -21.401302384560932 -3.108641691484214 -1.8846081469191476
upperneck 14.723898428769619 -2.667133044885574 2.605025929487071
head 7.895808291497216 -1.6798137575733991 0.5682850760746532
lclavicle -1.7357276777398839e-15 1.7646602817535377e-15
lhumerus -47.2729813297174 -9.910628051525844 97.1482537495928
lradius 108.3312036141374
lwrist 35.372463353560995
lhand -24.695441802574127 3.9087508943086133
lfingers 7.12502
lthumb 1.6501062157476214 33.63407086927719
rclavicle -1.7257017497354424e-15 1.7859039471872866e-15
rhumerus -50.95230781412698 14.042449594908192 -98.78038314790678
rradius 115.69767685054205
rwrist -10.240733944228834
rhand -16.1281403723081 39.89881000313901
rfingers 7.12502
rthumb 9.969764536142755 10.11288003220649
39
root -0.298205496444386 19.1046617556692 8.296058482495127 4.012528387258143 5.397023421219158 -3.823426297060207
lfemur -26.422139612278862 3.597775391515325 -16.375012617248814
ltibia 87.41926707073623
lfoot 3.6329510470796658 -7.428349158527698
ltoes -16.72805961873954
rfemur -11.277285821197722 3.5004846530857185 32.01261703209283
rtibia 59.36062078102154
rfoot 19.679759197934004 -2.4528896236151367
rtoes -9.677818815281386
lowerback 16.915021684817717 0.7707987614106189 3.069827182646018
upperback -1.2412081142425702 3.122836604179547 3.0137199864395523
thorax -9.809052390024483 0.5013727036625462 0.7446071076308568
lowerneck -21.129467268727645 -3.2316215976415226 -1.8563598128718672
upperneck 15.020623615262805 -2.940059829118336 2.741295181650689
head 7.883783758385089 -1.818352897709113 0.597095742328257
lclavicle -1.7356910472116692e-15 1.7644794597610358e-15
lhumerus -48.5430636868013 -8.56036545759899 96.64867921543595
lradius 107.10913392473438
lwrist 34.71250419513314
lhand -24.670336655534452 3.7818856320896064
lfingers 7.12502
lthumb 1.6688754422384804 33.51008677043733
rclavicle -1.7256944060279138e-15 1.7859102306492903e-15
rhumerus -50.60112236004032 14.41824371424645 -98.92142875041645
rradius 116.88803934524844
rwrist -10.1991796717409
rhand -16.469690022246084 39.855809291369646
rfingers 7.12502
rthumb 9.70277050300986 10.076209082421085
40
root -0.2750692411942386 19.002528357739827 9.585854013967088 3.9362602079620865 5.034795796139314 -3.823831284089665
lfemur -30.94056534647123 4.7180563698424 -15.940845847453495
ltibia 84.23987662265861
lfoot 5.616417789962612 -7.249664328083895
ltoes -14.483829142480843
rfemur -9.307340985633248 3.709110634367398 32.52242506067426
rtibia 60.46717818617728
rfoot 21.07579762185747 -2.222635225885038
rtoes -10.813388866242981
lowerback 16.89462517346019 0.9533650131466844 3.2511486572314805
upperback -1.3853998219831947 3.5249758102161746 2.8910556630639572
thorax -9.841829331672178 0.6860371538627965 0.12832925211170254
lowerneck -20.937704945856478 -3.3616095759194473 -1.8155521127325398
upperneck 15.056211577865332 -3.242245259290941 2.920559994339346
head 7.853108671460885 -1.9688827322006706 0.6366093200235434
lclavicle -1.7357105895621073e-15 1.7645143982821784e-15
lhumerus -50.35282528806153 -7.33821553069355 96.02184147637365
lradius 105.91385393808298
lwrist 33.85352697200133
lhand -24.658261149932294 3.5992173040842514
lfingers 7.12502
lthumb 1.6670498904881752 33.32182561356711
rclavicle -1.725684053405209e-15 1.7859166538483726e-15
rhumerus -50.38607519230981 14.678033114259268 -99.01784199306226
rradius 117.20944777343048
rwrist -10.257972333382117
rhand -16.691702715466576 39.88801563741232
rfingers 7.12502
rthumb 9.516110562138774 10.084600839535536
41
root -0.25158720426928594 18.83442529134832 10.55395303378321 3.9678557629368574 4.579518765608939 -3.746344105461885
lfemur -34.81931505439819 5.156506281609457 -15.63283190473187
ltibia 76.7273663008728
lfoot 5.276879711311633 -7.249983361228578
ltoes -13.308410433973537
rfemur -7.682827768835139 3.9353994368252185 32.93362199151252
rtibia 61.153648677502424
rfoot 21.568612068360494 -2.6853479254667323
rtoes -9.4593187046726
lowerback 16.829077268905767 1.1103886626146995 3.4113467878736152
upperback -1.4958339582525768 3.826873733794474 2.7507944293742357
thorax -9.859486590018635 0.8581253689740032 -0.49181657160529235
lowerneck -20.769145374580333 -3.4809187680233813 -1.7752767266161393
upperneck 14.837714919119199 -3.6309164953319146 3.1093922569150405
head 7.822078190537391 -2.102239136089777 0.6829665090703763
lclavicle -1.735705584165067e-15 1.7646418192889508e-15
lhumerus -52.473581808865006 -6.028733493465978 95.22792408175225
lradius 104.61968634537402
lwrist 33.073285800139274
lhand -24.651228644448373 3.3567169396768737
lfingers 7.12502
lthumb 1.6766919581720143 33.098153858674
rclavicle -1.7256838193943347e-15 1.785917341855722e-15
rhumerus -50.28856893343299 14.714991876570043 -99.02120825024276
rradius 117.01807690695355
rwrist -10.393106545741576
rhand -16.876828916657526 40.04808846711178
rfingers 7.12502
rthumb 9.267659577262183 10.184096321911085
42
root -0.22246822005351738 18.662916875515542 11.287550677985287 4.061698434742221 4.162175601237328 -3.7897121770649798
lfemur -37.38700794330008 4.831635799417817 -15.165235041680013
ltibia 65.14214089965253
lfoot 4.135911089811724 -7.262970451196107
ltoes -12.677850092020753
rfemur -6.020053371607043 4.227758727183707 33.3063212391901
rtibia 61.18856403819494
rfoot 21.96770891228772 -3.5749283440212603
rtoes -5.250841147600038
lowerback 16.732644573382494 1.2451723032906168 3.518037939103973
upperback -1.5833743666200832 4.013070016953586 2.587831766593693
thorax -9.868285483642602 1.0271398860688545 -1.052129573137119
lowerneck -20.65644105772692 -3.611495044004064 -1.7439471538439446
upperneck 14.564137888820294 -4.116203232143913 3.330179581047603
head 7.804828904983601 -2.21085463076293 0.7147446646678263
lclavicle -1.7357068287760028e-15 1.7646421041258173e-15
lhumerus -54.964595621034526 -4.865374147257764 94.39846378908125
lradius 103.17323347246361
lwrist 32.631169132954504
lhand -24.641099786522823 3.1325602829465033
lfingers 7.12502
lthumb 1.7021658897947405 32.90999515239445
rclavicle -1.7256817428965513e-15 1.7859189294481108e-15
rhumerus -50.35984364584323 14.487927533231627 -98.95978941125215
rradius 116.29607201648051
rwrist -10.70930782376572
rhand -16.972996256027702 40.151141958093326
rfingers 7.12502
rthumb 9.173404897039324 10.354216178493605
43
root -0.18697279401351755 18.497355733981 11.853068398663602 4.19694913762895 3.709643536039412 -3.966296561852894
lfemur -38.53264434082472 3.515777533256447 -14.497316718347353
ltibia 50.263051010221396
lfoot 3.847020562671702 -7.744226588386921
ltoes -11.864990692363723
rfemur -5.077303369396512 4.188403045481957 33.41293197918634
rtibia 60.569240709340114
rfoot 21.492284285720928 -4.476070011481037
rtoes 1.6743656879495803
lowerback 16.61378194467821 1.3551624115529666 3.558588002396549
upperback -1.666973945441088 4.087184652621822 2.389603113307055
thorax -9.89108083264425 1.1759738841683096 -1.560673630587821
lowerneck -20.592570432852455 -3.7359570652075758 -1.7170931233946543
upperneck 14.324163018909571 -4.586603737890426 3.5764679813075464
head 7.781936223344311 -2.275790524438597 0.747958255403589
lclavicle -1.7357168183331516e-15 1.7646338568283287e-15
lhumerus -57.85792747211501 -4.000557104020707 93.57096976843943
lradius 101.63130669131432
lwrist 32.61243806670576
lhand -24.658287836229395 2.8345389190813357
lfingers 7.12502
lthumb 1.7140043011125317 32.66186038321811
rclavicle -1.7256793495035525e-15 1.7859206520899595e-15
rhumerus -50.49106658551689 14.081446236313226 -98.81477614734848
rradius 115.24588323086627
rwrist -10.938139832109242
rhand -17.064193789976184 40.19363353423093
rfingers 7.12502
rthumb 9.061083865498489 10.39105151610111
44
root -0.15080838639533878 18.333152051375293 12.0978072309711 4.34396719044631 3.2786575546620367 -4.136784133144056
lfemur -38.31164393921019 1.0525310939146133 -13.692258934724052
ltibia 33.26191060280695
lfoot 4.912539797939852 -8.01406567184586
ltoes -11.960905309130093
rfemur -3.4021459801823433 4.086759850352018 33.63644334978673
rtibia 59.62540432149351
rfoot 20.324931154638627 -4.907430197261102
rtoes 10.43627131754044
lowerback 16.50804153895538 1.432698953772162 3.4854364019630406
upperback -1.742592271512823 4.0686466773496 2.1642325782102274
thorax -9.900102567270869 1.3028195662853375 -1.996300769349948
lowerneck -20.592713491040346 -3.8535731230552575 -1.6996795148109596
upperneck 14.048711941966188 -4.976537194949163 3.7563823169859534
head 7.748420992948669 -2.2891900046475047 0.7717209321757194
lclavicle -1.7357126784531314e-15 1.7646359286688104e-15
lhumerus -60.79186155799874 -3.4514715977654777 92.81947214740123
lradius 100.15465552928075
lwrist 32.89423592814828
lhand -24.686967073649114 2.5072412478450468
lfingers 7.12502
lthumb 1.7197902500757063 32.39242547650206
rclavicle -1.7256785896667216e-15 1.7859212026579956e-15
rhumerus -50.701429145967175 13.521279955132034 -98.57262122010059
rradius 113.95566838213439
rwrist -10.950075380816795
rhand -17.129137374404337 40.24568580961406
rfingers 7.12502
rthumb 9.003303027982628 10.407605380070189
